HIERARCHY
ROOT Hips
{
	OFFSET 0.00000 0.00000 0.00000
	CHANNELS 6 Xposition Yposition Zposition Zrotation Yrotation Xrotation 
	JOINT LHipJoint
	{
		OFFSET 0 0 0
		CHANNELS 3 Zrotation Yrotation Xrotation
		JOINT LeftUpLeg
		{
			OFFSET 1.33213 -1.58186 0.78596
			CHANNELS 3 Zrotation Yrotation Xrotation
			JOINT LeftLeg
			{
				OFFSET 2.29717 -6.31144 0.00000
				CHANNELS 3 Zrotation Yrotation Xrotation
				JOINT LeftFoot
				{
					OFFSET 2.38430 -6.55082 0.00000
					CHANNELS 3 Zrotation Yrotation Xrotation
					JOINT LeftToeBase
					{
						OFFSET 0.11863 -0.32594 1.77568
						CHANNELS 3 Zrotation Yrotation Xrotation
						End Site
						{
							OFFSET 0.00000 -0.00000 0.91633
						}
					}
				}
			}
		}
	}
	JOINT RHipJoint
	{
		OFFSET 0 0 0
		CHANNELS 3 Zrotation Yrotation Xrotation
		JOINT RightUpLeg
		{
			OFFSET -1.41575 -1.58186 0.78596
			CHANNELS 3 Zrotation Yrotation Xrotation
			JOINT RightLeg
			{
				OFFSET -2.42012 -6.64922 0.00000
				CHANNELS 3 Zrotation Yrotation Xrotation
				JOINT RightFoot
				{
					OFFSET -2.47254 -6.79327 0.00000
					CHANNELS 3 Zrotation Yrotation Xrotation
					JOINT RightToeBase
					{
						OFFSET -0.15219 -0.41813 1.93430
						CHANNELS 3 Zrotation Yrotation Xrotation
						End Site
						{
							OFFSET -0.00000 -0.00000 0.99984
						}
					}
				}
			}
		}
	}
	JOINT LowerBack
	{
		OFFSET 0 0 0
		CHANNELS 3 Zrotation Yrotation Xrotation
		JOINT Spine
		{
			OFFSET -0.04717 2.09389 -0.14516
			CHANNELS 3 Zrotation Yrotation Xrotation
			JOINT Spine1
			{
				OFFSET 0.02825 2.09433 -0.11325
				CHANNELS 3 Zrotation Yrotation Xrotation
				JOINT Neck
				{
					OFFSET 0 0 0
					CHANNELS 3 Zrotation Yrotation Xrotation
					JOINT Neck1
					{
						OFFSET -0.01210 1.39029 0.12448
						CHANNELS 3 Zrotation Yrotation Xrotation
						JOINT Head
						{
							OFFSET 0.09492 1.38365 0.14559
							CHANNELS 3 Zrotation Yrotation Xrotation
							End Site
							{
								OFFSET 0.03402 1.40343 0.03708
							}
						}
					}
				}
				JOINT LeftShoulder
				{
					OFFSET 0 0 0
					CHANNELS 3 Zrotation Yrotation Xrotation
					JOINT LeftArm
					{
						OFFSET 2.83352 1.10671 -0.20481
						CHANNELS 3 Zrotation Yrotation Xrotation
						JOINT LeftForeArm
						{
							OFFSET 4.77195 -0.00000 -0.00000
							CHANNELS 3 Zrotation Yrotation Xrotation
							JOINT LeftHand
							{
								OFFSET 2.98444 -0.00000 0.00000
								CHANNELS 3 Zrotation Yrotation Xrotation
								JOINT LeftFingerBase
								{
									OFFSET 0 0 0
									CHANNELS 3 Zrotation Yrotation Xrotation
									JOINT LeftHandIndex1
									{
										OFFSET 0.99228 -0.00000 0.00000
										CHANNELS 3 Zrotation Yrotation Xrotation
										End Site
										{
											OFFSET 0.80001 -0.00000 0.00000
										}
									}
								}
								JOINT LThumb
								{
									OFFSET 0 0 0
									CHANNELS 3 Zrotation Yrotation Xrotation
									End Site
									{
										OFFSET 0.81222 -0.00000 0.81222
									}
								}
							}
						}
					}
				}
				JOINT RightShoulder
				{
					OFFSET 0 0 0
					CHANNELS 3 Zrotation Yrotation Xrotation
					JOINT RightArm
					{
						OFFSET -3.23760 1.11106 0.06723
						CHANNELS 3 Zrotation Yrotation Xrotation
						JOINT RightForeArm
						{
							OFFSET -4.62052 -0.00000 0.00000
							CHANNELS 3 Zrotation Yrotation Xrotation
							JOINT RightHand
							{
								OFFSET -2.95332 -0.00000 0.00000
								CHANNELS 3 Zrotation Yrotation Xrotation
								JOINT RightFingerBase
								{
									OFFSET 0 0 0
									CHANNELS 3 Zrotation Yrotation Xrotation
									JOINT RightHandIndex1
									{
										OFFSET -0.99096 -0.00000 0.00000
										CHANNELS 3 Zrotation Yrotation Xrotation
										End Site
										{
											OFFSET -0.79893 -0.00000 0.00000
										}
									}
								}
								JOINT RThumb
								{
									OFFSET 0 0 0
									CHANNELS 3 Zrotation Yrotation Xrotation
									End Site
									{
										OFFSET -0.81113 -0.00000 0.81113
									}
								}
							}
						}
					}
				}
			}
		}
	}
}
MOTION
Frames: 16
Frame Time: 0.0235294
0.00 0.00 0.00 0 0 0 0 0 0 -21 0 0 0 0 0 0 0 0 0 0 0 0 0 0 21 0 0 0 0 0 0 0 0 0 0 0 0 0 0 0 0 0 0 0 0 0 0 -16 0 0 21 0 0 11 0 0 0 -8 0 0 0 0 0 0 0 0 0 0 0 0 0 0 0 0 0 0 0 0 8 0 0 0 0 0 0 0 0 0 0 0 0 0 0 0 0 0
0.00 0.00 0.00 -178.3020 -7.9847 -168.2350 0.0000 0.0000 0.0000 -16.7067 -4.4907 1.3353 0.6522 5.1659 14.3823 -0.0576 -5.0406 -1.0441 0.3867 3.9931 11.0572 0.0000 0.0000 0.0000 20.5454 8.2410 -28.4504 -2.9462 -10.6074 30.9671 -0.1508 17.0097 -13.3775 -0.7171 -5.4115 15.0860 -0.9530 -3.1697 -8.9604 1.2794 -4.2174 0.5714 1.2820 -2.1363 5.7868 -5.7427 -2.8133 1.0416 10.2502 -2.6209 -10.3755 4.1219 -1.2725 -2.9954 -0.0000 0.0000 0.0000 -89.9334 -7.3073 19.1811 10.6383 -17.7317 -1.6641 -0.0000 -0.0000 18.0060 -0.3791 7.1411 -0.0471 -7.1250 0.0000 -0.0000 -22.5568 36.2307 5.1961 -0.0000 0.0000 0.0000 93.5763 -7.5167 -8.7207 -11.8341 19.5554 -2.0464 0.0000 0.0000 41.0694 -1.8144 -4.3537 0.1378 7.1250 -0.0000 -0.0000 20.1212 -33.7632 5.8558
0.00 0.00 0.00 -179.0230 -6.0969 -168.7050 0.0000 0.0000 0.0000 -16.7161 -7.4383 -6.8303 3.4711 11.4212 33.7140 0.0169 0.5463 2.3211 0.0414 1.3137 3.6123 0.0000 0.0000 0.0000 21.6415 6.2732 -25.2035 -2.6431 -10.0936 29.2802 0.3929 21.4953 -11.9113 -1.4975 -7.7299 21.8966 -1.2197 -2.9756 -8.7836 0.4888 -3.8814 0.5422 0.6669 -1.9635 5.6056 -5.8163 -2.3956 1.4605 10.0575 -2.1772 -9.9195 4.0654 -1.0731 -2.9703 0.0000 0.0000 0.0000 -89.2058 -3.0957 20.7274 12.2617 -20.1960 -2.1918 -0.0000 -0.0000 21.6586 5.7159 9.0906 0.9060 -7.1250 0.0000 -0.0000 -18.1532 38.4878 3.0309 0.0000 0.0000 0.0000 94.0439 -7.8123 -8.1837 -11.8237 19.5398 -2.0430 0.0000 0.0000 40.5573 -1.6440 -4.9259 0.1412 7.1250 -0.0000 -0.0000 20.3892 -34.2912 5.6640
0.00 0.00 0.00 -178.5100 -5.1782 -169.1240 0.0000 0.0000 0.0000 -14.8102 -10.3862 -19.2756 8.5358 16.4996 54.4706 0.0976 2.9924 5.6180 0.0680 1.6826 4.6293 0.0000 0.0000 0.0000 23.7354 2.3920 -22.0820 -2.0844 -9.0397 25.9197 1.3071 25.7853 -8.3262 -2.1249 -9.1214 26.1759 -0.0324 -2.5908 -8.0844 0.4041 -3.4831 0.6519 0.0029 -1.7315 5.2380 -5.5618 -2.1707 1.2708 9.3111 -1.9165 -10.0255 3.7867 -0.9240 -3.0069 -0.0000 0.0000 0.0000 -89.1581 -3.1786 16.9806 11.4847 -19.0274 -1.9310 -0.0000 -0.0000 23.1904 5.7767 7.2080 0.7272 -7.1250 0.0000 -0.0000 -17.6334 36.6932 3.7470 -0.0000 0.0000 0.0000 93.5531 -7.5305 -6.7834 -12.1806 20.0749 -2.1639 0.0000 0.0000 39.4263 -1.5832 -4.8061 0.1327 7.1250 -0.0000 -0.0000 20.4082 -34.1757 5.7310
0.00 0.00 0.00 -180.2870 -1.0676 -171.9330 0.0000 0.0000 0.0000 -20.2798 -7.2268 -26.4010 1.3836 7.4427 21.0336 -0.2005 -8.8234 7.3997 0.3177 3.6232 10.0190 0.0000 0.0000 0.0000 20.8974 -1.3848 -0.4596 -2.9741 -10.6531 31.1186 1.1390 19.7826 -0.1643 -1.2406 -7.0627 19.9012 -2.9457 -0.4915 -10.2572 -0.7258 -0.2608 1.1831 0.8519 -0.2392 7.0248 -5.7487 -1.8662 1.2982 9.0867 -2.4257 -7.4758 4.1352 -1.4416 -2.4742 -0.0000 -0.0000 0.0000 -88.6046 -0.0589 -12.5019 6.5799 -11.2258 -0.6474 -0.0000 -0.0000 48.7337 7.4242 7.4376 0.9664 -7.1250 0.0000 -0.0000 -16.3409 37.0192 3.3173 -0.0000 -0.0000 0.0000 93.9816 -4.6221 1.1125 -13.4340 21.9198 -2.6131 0.0000 0.0000 34.7132 -1.9189 -5.5016 0.1840 7.1250 -0.0000 -0.0000 20.3126 -34.8463 5.3481
0.00 0.00 0.00 -180.5130 -1.4296 -172.4580 0.0000 0.0000 0.0000 -22.2689 -2.9727 -24.3458 1.2805 7.1712 20.2236 -0.3505 -11.4630 9.3130 0.9363 6.1635 17.2597 0.0000 0.0000 0.0000 18.6650 -2.6460 -8.9910 -6.7408 -15.1097 47.8870 0.4812 12.9810 9.5994 -1.8890 -8.6310 24.6478 -3.3609 -0.4239 -9.5190 -0.8969 -0.1435 1.1840 0.9274 -0.1906 6.6020 -5.5376 -1.9945 1.2640 9.4470 -2.5888 -7.5401 4.2270 -1.5494 -2.4749 -0.0000 0.0000 0.0000 -88.3776 0.2374 1.3127 8.5512 -14.4424 -1.0855 -0.0000 -0.0000 35.6820 6.8675 7.8004 0.9365 -7.1250 0.0000 -0.0000 -16.8821 37.3327 3.3002 -0.0000 0.0000 0.0000 93.3041 -5.8125 4.6871 -14.3956 23.2974 -2.9828 0.0000 0.0000 32.8438 -0.7371 -5.1150 0.0657 7.1250 -0.0000 -0.0000 21.1446 -34.4186 5.8297
0.00 0.00 0.00 -181.4400 -3.0717 -173.6410 0.0000 0.0000 0.0000 -24.6550 0.1071 -18.7059 1.1067 6.6839 18.7823 -0.8192 -15.9903 8.7421 0.8677 5.9396 16.6092 0.0000 0.0000 0.0000 15.4195 -0.4158 -26.4466 -12.5350 -18.6078 67.6750 0.1126 10.0716 -4.9993 -0.6221 -5.0473 14.0435 -4.7599 -1.1443 -8.2133 -1.0567 -0.9931 1.9465 1.4257 -0.6737 6.7283 -5.3757 -2.1260 2.2409 9.9908 -2.7197 -7.8864 3.9772 -1.6774 -2.4729 -0.0000 0.0000 0.0000 -87.9876 -2.2051 14.5269 11.6129 -19.2216 -1.9730 -0.0000 -0.0000 25.7183 9.2374 6.9293 1.1241 -7.1250 0.0000 -0.0000 -14.7413 36.6381 3.1153 -0.0000 0.0000 0.0000 93.0746 -4.9474 2.8637 -14.9200 24.0345 -3.1933 0.0000 0.0000 31.8123 -2.8367 -5.3052 0.2625 7.1250 -0.0000 -0.0000 19.5411 -34.7126 5.1905
0.00 0.00 0.00 -181.7380 -6.4663 -174.2490 0.0000 0.0000 0.0000 -24.7145 -0.9531 -15.4133 1.5162 7.7759 22.0354 -1.1814 -18.8176 6.6571 1.8374 8.5187 24.3011 0.0000 0.0000 0.0000 12.4793 5.6859 -34.6931 -8.1794 -16.2496 53.2062 -0.5814 7.6343 -13.8014 -0.2910 -3.4689 9.5870 -5.8668 -2.3171 -7.3382 -0.5542 -2.5179 2.3080 2.3740 -1.4839 6.7859 -5.6809 -2.2841 2.3871 10.5580 -2.9196 -8.3599 4.2174 -1.8139 -2.6056 -0.0000 -0.0000 0.0000 -88.4780 -4.4835 20.1822 12.5467 -20.6195 -2.2912 -0.0000 -0.0000 22.8246 9.2560 7.4256 1.2066 -7.1250 0.0000 -0.0000 -14.8307 37.1249 2.9531 -0.0000 -0.0000 0.0000 92.5598 -6.4601 0.1538 -14.1274 22.9166 -2.8775 0.0000 0.0000 34.9975 -1.9996 -5.3949 0.1881 7.1250 -0.0000 -0.0000 20.2230 -34.7508 5.3719
0.00 0.00 0.00 -181.1840 -27.0946 -161.3820 0.0000 0.0000 0.0000 -14.2691 -15.1934 -31.6184 7.2414 15.5319 49.7816 0.4525 -4.2467 -11.9668 0.0047 0.4441 1.2203 0.0000 0.0000 0.0000 23.8039 -1.2434 -41.0887 -3.0381 -10.7565 31.4629 -0.7380 9.9450 -15.8185 -0.2717 -3.3532 9.2636 -2.1965 -0.5725 -0.5425 -1.2665 -0.8237 4.9293 -0.1331 -0.5552 5.4115 -5.9688 -0.7437 -0.6453 7.2213 -1.1855 3.5008 3.3822 -0.5962 1.3205 0.0000 0.0000 0.0000 -86.9414 -9.6774 23.2194 12.6399 -20.7573 -2.3241 -0.0000 -0.0000 22.0287 9.0457 7.1238 1.1311 -7.1250 0.0000 -0.0000 -14.9397 36.8166 3.0923 0.0000 0.0000 0.0000 88.4590 4.5413 18.7319 -19.4278 29.9468 -5.2427 0.0000 0.0000 26.9307 -2.1355 -5.1374 0.1913 7.1250 -0.0000 -0.0000 20.0540 -34.5163 5.4436
0.00 0.00 0.00 -181.3870 -35.0704 -161.2830 0.0000 0.0000 0.0000 -22.4268 -6.6550 -31.4808 3.4784 11.4319 33.7507 0.8537 -1.9639 -16.9059 0.4930 4.5017 12.4927 0.0000 0.0000 0.0000 21.0291 1.5342 -45.2299 -6.0234 -14.4510 45.0757 -1.5177 7.1780 -22.0532 -0.1740 -2.6870 7.4085 -2.7877 -1.4476 0.8495 -0.1618 -2.0484 4.7579 1.3218 -1.1969 4.5223 -5.3284 -1.3339 -2.8876 7.3457 -2.0516 5.8873 3.3105 -0.9746 2.5713 0.0000 -0.0000 0.0000 -86.8683 -8.7829 14.5505 9.6521 -16.1936 -1.3763 -0.0000 -0.0000 27.6400 7.5636 6.1173 0.8107 -7.1250 0.0000 -0.0000 -15.9376 35.7496 3.7426 0.0000 -0.0000 0.0000 88.7714 1.4573 16.4975 -19.4759 30.0057 -5.2667 0.0000 0.0000 25.4786 -2.2255 -4.9262 0.1912 7.1250 -0.0000 -0.0000 19.9333 -34.3227 5.5070
0.00 0.00 0.00 -181.5120 -40.5496 -161.0200 0.0000 0.0000 0.0000 -20.4511 -9.7442 -38.9115 5.8644 14.2956 44.4349 0.9742 -5.4859 -17.6251 0.0806 1.8309 5.0384 0.0000 0.0000 0.0000 9.7287 11.4296 -51.0697 -10.9056 -17.8886 62.4747 -1.5729 8.5711 -22.4586 -0.3153 3.6096 -9.9810 -1.9557 -2.1454 6.3160 0.3518 -3.2847 6.0570 1.5672 -1.8647 2.8479 -5.4053 -1.9372 -3.3354 6.8526 -2.6312 3.3889 3.1121 -1.2555 1.8571 -0.0000 -0.0000 0.0000 -83.8850 -15.6659 22.2280 10.3995 -17.3620 -1.5921 -0.0000 -0.0000 25.9294 7.9514 6.1622 0.8590 -7.1250 0.0000 -0.0000 -15.6322 35.8150 3.6405 -0.0000 -0.0000 0.0000 87.1005 5.2711 20.5022 -20.0033 30.6463 -5.5330 0.0000 0.0000 25.5437 -5.1001 -4.0654 0.3625 7.1250 -0.0000 -0.0000 17.4806 -33.6482 5.0685
0.00 0.00 0.00 -180.6740 -46.2317 -157.9810 0.0000 0.0000 0.0000 -13.6580 -17.5348 -53.9663 10.8335 17.8527 62.2397 1.3489 -9.8101 -20.8845 0.0689 1.6936 4.6595 0.0000 0.0000 0.0000 4.5170 14.4801 -58.2135 -13.4614 -18.9425 70.5526 -2.2085 14.9430 -27.1720 -0.7848 5.6555 -15.7879 -2.5232 -1.5969 12.2481 1.3979 -2.9975 7.7880 3.1808 -1.8885 1.5028 -5.7769 -2.8345 -3.6770 7.8928 -3.6141 -2.1483 3.5138 -1.7882 0.2346 -0.0000 0.0000 0.0000 -80.6565 -26.7125 32.6881 14.1461 -22.9432 -2.8848 -0.0000 -0.0000 17.9479 11.4106 6.1903 1.2468 -7.1250 0.0000 -0.0000 -12.8114 36.0358 2.8820 -0.0000 0.0000 0.0000 82.9062 15.8546 24.6446 -19.2553 29.7347 -5.1569 0.0000 0.0000 26.4903 -9.4447 -4.9696 0.8256 7.1250 -0.0000 -0.0000 14.1888 -34.7281 3.6726
0.00 0.00 0.00 -181.5340 -47.9977 -153.4800 0.0000 0.0000 0.0000 -6.7659 -20.9682 -72.1563 17.2409 19.8165 81.9091 1.7330 -13.7249 -24.0838 0.0214 -0.9439 -2.5944 0.0000 0.0000 0.0000 2.7289 13.5016 -72.7668 -18.4027 -19.9387 85.3252 -3.9372 18.4378 -36.4322 -0.0446 1.3637 -3.7501 -4.3030 -0.1175 19.8075 0.4165 -2.0864 10.3592 3.2697 -1.7085 0.2685 -5.1442 -3.0541 -0.6653 10.0630 -3.7045 -12.2321 4.0158 -2.2566 -3.2024 -0.0000 0.0000 0.0000 -72.1701 -40.9508 39.3781 18.9572 -29.3655 -5.0099 -0.0000 -0.0000 13.9639 15.7148 5.6014 1.5731 -7.1250 0.0000 -0.0000 -9.1698 35.6712 2.1244 -0.0000 0.0000 0.0000 79.2836 31.6503 25.9303 -18.6873 29.0283 -4.8782 0.0000 0.0000 28.1075 -14.0712 -3.9937 1.0001 7.1250 -0.0000 -0.0000 10.2892 -33.9586 2.8254
0.00 0.00 0.00 -180.6010 -48.6027 -152.4930 0.0000 0.0000 0.0000 -1.0780 -19.3935 -86.7642 23.3103 19.7352 99.7199 1.3303 -20.7004 -23.6144 0.0441 1.3556 3.7279 0.0000 0.0000 0.0000 3.3127 9.7785 -86.0480 -23.9020 -19.6310 101.4763 -4.4517 22.8864 -39.3833 -0.0042 0.4178 -1.1479 -4.9153 0.7336 24.3415 0.4083 -1.7727 12.1060 3.6535 -1.7787 -0.0498 -5.1204 -2.6800 1.9791 10.3197 -3.1436 -18.1607 4.3204 -2.2878 -5.4900 -0.0000 -0.0000 0.0000 -66.4319 -51.5025 38.4689 20.5621 -31.3137 -5.8207 -0.0000 -0.0000 14.7012 18.5423 3.6870 1.2356 -7.1250 0.0000 -0.0000 -6.6201 33.8128 1.8267 -0.0000 -0.0000 0.0000 73.8206 42.6125 24.0468 -19.9002 30.5220 -5.4806 0.0000 0.0000 25.9879 -15.8872 -3.9707 1.1291 7.1250 -0.0000 -0.0000 8.8125 -34.0068 2.4005
0.00 0.00 0.00 -181.0410 -48.1577 -150.8610 0.0000 0.0000 0.0000 3.6128 -17.1214 -100.0986 29.0437 17.9137 117.3603 1.4647 -23.2699 -25.4288 0.0091 0.6163 1.6937 0.0000 0.0000 0.0000 0.5199 9.9701 -97.6710 -29.2996 -17.7853 118.1952 -5.3086 25.8642 -43.3849 -0.1851 -2.7711 7.6422 -6.9922 1.5360 27.6974 0.5120 -1.8916 13.7352 5.0454 -2.1719 0.3233 -6.1631 -2.1367 3.7051 9.9806 -2.5909 -22.2460 4.5741 -2.1163 -7.1311 -0.0000 0.0000 0.0000 -56.8561 -60.7187 31.8013 23.1792 -34.2842 -7.2390 -0.0000 -0.0000 14.3716 18.5898 5.6463 1.8953 -7.1250 0.0000 -0.0000 -6.7933 35.8652 1.5340 -0.0000 0.0000 0.0000 64.5890 53.5817 19.4529 -21.0259 31.8586 -6.0636 0.0000 0.0000 22.7498 -16.7374 -3.5474 1.0660 7.1250 -0.0000 -0.0000 8.0723 -33.6027 2.2751
0.00 0.00 0.00 -181.4310 -46.3146 -148.6410 0.0000 0.0000 0.0000 5.6778 -6.8653 -115.6041 34.2075 14.2242 135.8567 0.2864 -27.7659 -21.2927 0.0185 0.8771 2.4107 0.0000 0.0000 0.0000 0.2073 7.2346 -112.1332 -34.1659 -14.2657 135.6876 -5.8396 29.7151 -46.1884 -0.4241 -4.1794 11.5820 -8.1879 2.1026 28.9518 -0.2085 -2.2379 16.2297 4.9387 -2.7880 2.7238 -6.4999 -1.4114 5.7883 8.9143 -1.8908 -25.2040 4.4152 -1.7698 -8.5865 -0.0000 0.0000 0.0000 -23.6891 -70.2276 4.3065 25.6736 -36.8846 -8.6910 -0.0000 -0.0000 16.6779 23.4383 3.4293 1.4855 -7.1250 0.0000 -0.0000 -2.6031 33.7082 0.7214 -0.0000 0.0000 0.0000 34.9019 65.7601 -4.1627 -20.3760 31.0927 -5.7242 0.0000 0.0000 22.0625 -18.2429 -2.3480 0.7737 7.1250 -0.0000 -0.0000 6.7363 -32.4026 2.0902
